<mxfile host="app.diagrams.net" modified="2022-04-25T05:34:33.007Z" agent="5.0 (Macintosh; Intel Mac OS X 10_15_7) AppleWebKit/537.36 (KHTML, like Gecko) Chrome/100.0.4896.127 Safari/537.36" etag="VNiu3gEzO26r--J5uVJU" version="17.4.6" type="github">
  <diagram id="3sLkr4QfW78tacsgtS9n" name="Page-1">
    <mxGraphModel dx="1106" dy="534" grid="1" gridSize="10" guides="1" tooltips="1" connect="1" arrows="1" fold="1" page="1" pageScale="1" pageWidth="850" pageHeight="1100" math="0" shadow="0">
      <root>
        <mxCell id="0" />
        <mxCell id="1" parent="0" />
        <mxCell id="Ej2254S0We36Tm3z-koc-6" value="" style="group" parent="1" vertex="1" connectable="0">
          <mxGeometry x="230" y="770" width="100" height="100" as="geometry" />
        </mxCell>
        <mxCell id="Ej2254S0We36Tm3z-koc-4" value="" style="strokeWidth=2;html=1;shape=mxgraph.flowchart.database;whiteSpace=wrap;" parent="Ej2254S0We36Tm3z-koc-6" vertex="1">
          <mxGeometry width="100" height="100" as="geometry" />
        </mxCell>
        <mxCell id="Ej2254S0We36Tm3z-koc-3" value="" style="dashed=0;outlineConnect=0;html=1;align=center;labelPosition=center;verticalLabelPosition=bottom;verticalAlign=top;shape=mxgraph.weblogos.vimeo;fillColor=#1AB7EA;strokeColor=none" parent="Ej2254S0We36Tm3z-koc-6" vertex="1">
          <mxGeometry x="18.700000000000045" y="38" width="62.6" height="58" as="geometry" />
        </mxCell>
        <mxCell id="Ej2254S0We36Tm3z-koc-18" value="" style="group" parent="1" vertex="1" connectable="0">
          <mxGeometry x="720" y="360" width="220" height="230" as="geometry" />
        </mxCell>
        <mxCell id="Ej2254S0We36Tm3z-koc-12" value="" style="rounded=1;whiteSpace=wrap;html=1;" parent="Ej2254S0We36Tm3z-koc-18" vertex="1">
          <mxGeometry width="220" height="230" as="geometry" />
        </mxCell>
        <mxCell id="Ej2254S0We36Tm3z-koc-11" value="Lambda" style="outlineConnect=0;dashed=0;verticalLabelPosition=bottom;verticalAlign=top;align=center;html=1;shape=mxgraph.aws3.lambda;fillColor=#F58534;gradientColor=none;aspect=fixed;" parent="Ej2254S0We36Tm3z-koc-18" vertex="1">
          <mxGeometry x="78" y="20" width="64" height="77.8" as="geometry" />
        </mxCell>
        <mxCell id="Ej2254S0We36Tm3z-koc-19" value="" style="group" parent="1" vertex="1" connectable="0">
          <mxGeometry x="720" y="90" width="220" height="230" as="geometry" />
        </mxCell>
        <mxCell id="Ej2254S0We36Tm3z-koc-10" value="" style="rounded=1;whiteSpace=wrap;html=1;" parent="Ej2254S0We36Tm3z-koc-19" vertex="1">
          <mxGeometry width="220" height="230" as="geometry" />
        </mxCell>
        <mxCell id="Ej2254S0We36Tm3z-koc-2" value="S3" style="outlineConnect=0;dashed=0;verticalLabelPosition=bottom;verticalAlign=top;align=center;html=1;shape=mxgraph.aws3.s3;fillColor=#E05243;gradientColor=none;aspect=fixed;" parent="Ej2254S0We36Tm3z-koc-19" vertex="1">
          <mxGeometry x="78" y="20" width="64" height="77.8" as="geometry" />
        </mxCell>
        <mxCell id="Ej2254S0We36Tm3z-koc-15" value="&lt;span style=&quot;font-size: 12px&quot;&gt;peersuma-album-media&lt;/span&gt;" style="rounded=0;whiteSpace=wrap;html=1;fontSize=23;" parent="Ej2254S0We36Tm3z-koc-19" vertex="1">
          <mxGeometry x="15" y="140" width="195" height="30" as="geometry" />
        </mxCell>
        <mxCell id="Ej2254S0We36Tm3z-koc-16" value="&lt;span style=&quot;font-size: 12px&quot;&gt;peersuma-frame-caption&lt;/span&gt;" style="rounded=0;whiteSpace=wrap;html=1;fontSize=23;" parent="Ej2254S0We36Tm3z-koc-19" vertex="1">
          <mxGeometry x="15" y="180" width="195" height="30" as="geometry" />
        </mxCell>
        <mxCell id="Ej2254S0We36Tm3z-koc-21" value="AWS" style="swimlane;startSize=0;fontSize=24;verticalAlign=top;" parent="1" vertex="1">
          <mxGeometry x="40" y="40" width="930" height="590" as="geometry">
            <mxRectangle x="40" y="40" width="90" height="30" as="alternateBounds" />
          </mxGeometry>
        </mxCell>
        <mxCell id="Ej2254S0We36Tm3z-koc-23" value="" style="swimlane;startSize=0;fontSize=24;verticalAlign=top;align=center;" parent="1" vertex="1">
          <mxGeometry x="613.5" y="720" width="360" height="260" as="geometry" />
        </mxCell>
        <mxCell id="Ej2254S0We36Tm3z-koc-25" value="Azure" style="text;html=1;align=center;verticalAlign=middle;resizable=0;points=[];autosize=1;strokeColor=none;fillColor=none;fontSize=24;" parent="Ej2254S0We36Tm3z-koc-23" vertex="1">
          <mxGeometry x="140" y="10" width="80" height="30" as="geometry" />
        </mxCell>
        <mxCell id="Ej2254S0We36Tm3z-koc-9" value="" style="rounded=1;whiteSpace=wrap;html=1;" parent="1" vertex="1">
          <mxGeometry x="70" y="90" width="220" height="330" as="geometry" />
        </mxCell>
        <mxCell id="Ej2254S0We36Tm3z-koc-7" value="EC2" style="outlineConnect=0;dashed=0;verticalLabelPosition=bottom;verticalAlign=top;align=center;html=1;shape=mxgraph.aws3.ec2;fillColor=#F58534;gradientColor=none;aspect=fixed;" parent="1" vertex="1">
          <mxGeometry x="148" y="109.995" width="64" height="77.81" as="geometry" />
        </mxCell>
        <mxCell id="Ej2254S0We36Tm3z-koc-13" value="&lt;font style=&quot;font-size: 12px&quot;&gt;Peersuma Frontend&lt;/font&gt;" style="rounded=0;whiteSpace=wrap;html=1;fontSize=23;" parent="1" vertex="1">
          <mxGeometry x="120" y="260" width="120" height="30" as="geometry" />
        </mxCell>
        <mxCell id="Ej2254S0We36Tm3z-koc-14" value="&lt;font style=&quot;font-size: 12px ; line-height: 1.2&quot;&gt;Peersuma Backend&lt;/font&gt;" style="rounded=0;whiteSpace=wrap;html=1;fontSize=23;" parent="1" vertex="1">
          <mxGeometry x="120" y="300" width="120" height="30" as="geometry" />
        </mxCell>
        <mxCell id="Ej2254S0We36Tm3z-koc-17" value="Dockerized Container" style="swimlane;startSize=0;fontSize=12;verticalAlign=top;fontStyle=0" parent="1" vertex="1">
          <mxGeometry x="82.5" y="230" width="195" height="150" as="geometry" />
        </mxCell>
        <mxCell id="hW60GCfRC2Gjmzfm_cqa-1" value="&lt;font style=&quot;font-size: 12px ; line-height: 1.2&quot;&gt;PostgreSQL DB&lt;/font&gt;" style="rounded=0;whiteSpace=wrap;html=1;fontSize=23;" vertex="1" parent="1">
          <mxGeometry x="120" y="340" width="120" height="30" as="geometry" />
        </mxCell>
      </root>
    </mxGraphModel>
  </diagram>
</mxfile>
